<mxfile host="app.diagrams.net" agent="Mozilla/5.0 (Windows NT 10.0; Win64; x64) AppleWebKit/537.36 (KHTML, like Gecko) Chrome/131.0.0.0 Safari/537.36" version="25.0.3">
  <diagram name="หน้า-1" id="Og4kScBj_VdnpOslId5N">
    <mxGraphModel dx="1034" dy="446" grid="1" gridSize="10" guides="1" tooltips="1" connect="1" arrows="1" fold="1" page="1" pageScale="1" pageWidth="827" pageHeight="1169" math="0" shadow="0">
      <root>
        <mxCell id="0" />
        <mxCell id="1" parent="0" />
        <mxCell id="9j0oDae6C_7yZ8BVV_e4-3" value="" style="edgeStyle=orthogonalEdgeStyle;rounded=0;orthogonalLoop=1;jettySize=auto;html=1;" edge="1" parent="1" source="9j0oDae6C_7yZ8BVV_e4-1" target="9j0oDae6C_7yZ8BVV_e4-2">
          <mxGeometry relative="1" as="geometry" />
        </mxCell>
        <mxCell id="9j0oDae6C_7yZ8BVV_e4-1" value="start" style="strokeWidth=2;html=1;shape=mxgraph.flowchart.start_1;whiteSpace=wrap;" vertex="1" parent="1">
          <mxGeometry x="364" y="60" width="100" height="60" as="geometry" />
        </mxCell>
        <mxCell id="9j0oDae6C_7yZ8BVV_e4-5" value="" style="edgeStyle=orthogonalEdgeStyle;rounded=0;orthogonalLoop=1;jettySize=auto;html=1;" edge="1" parent="1" source="9j0oDae6C_7yZ8BVV_e4-2" target="9j0oDae6C_7yZ8BVV_e4-4">
          <mxGeometry relative="1" as="geometry" />
        </mxCell>
        <mxCell id="9j0oDae6C_7yZ8BVV_e4-2" value="int n = 0 ;&lt;div&gt;int array [ 100 ] ;&lt;/div&gt;" style="whiteSpace=wrap;html=1;strokeWidth=2;" vertex="1" parent="1">
          <mxGeometry x="354" y="200" width="120" height="60" as="geometry" />
        </mxCell>
        <mxCell id="9j0oDae6C_7yZ8BVV_e4-7" value="" style="edgeStyle=orthogonalEdgeStyle;rounded=0;orthogonalLoop=1;jettySize=auto;html=1;" edge="1" parent="1" source="9j0oDae6C_7yZ8BVV_e4-4" target="9j0oDae6C_7yZ8BVV_e4-6">
          <mxGeometry relative="1" as="geometry" />
        </mxCell>
        <mxCell id="9j0oDae6C_7yZ8BVV_e4-20" style="edgeStyle=orthogonalEdgeStyle;rounded=0;orthogonalLoop=1;jettySize=auto;html=1;exitX=1;exitY=0.5;exitDx=0;exitDy=0;entryX=0.95;entryY=0.55;entryDx=0;entryDy=0;entryPerimeter=0;" edge="1" parent="1" source="9j0oDae6C_7yZ8BVV_e4-4" target="9j0oDae6C_7yZ8BVV_e4-21">
          <mxGeometry relative="1" as="geometry">
            <mxPoint x="620" y="1020" as="targetPoint" />
            <Array as="points">
              <mxPoint x="640" y="370" />
              <mxPoint x="640" y="960" />
            </Array>
          </mxGeometry>
        </mxCell>
        <mxCell id="9j0oDae6C_7yZ8BVV_e4-4" value="n &amp;lt; 100 ?" style="rhombus;whiteSpace=wrap;html=1;strokeWidth=2;" vertex="1" parent="1">
          <mxGeometry x="374" y="330" width="80" height="80" as="geometry" />
        </mxCell>
        <mxCell id="9j0oDae6C_7yZ8BVV_e4-9" value="" style="edgeStyle=orthogonalEdgeStyle;rounded=0;orthogonalLoop=1;jettySize=auto;html=1;" edge="1" parent="1" source="9j0oDae6C_7yZ8BVV_e4-6" target="9j0oDae6C_7yZ8BVV_e4-8">
          <mxGeometry relative="1" as="geometry" />
        </mxCell>
        <mxCell id="9j0oDae6C_7yZ8BVV_e4-6" value="แสดงข้อความ Input [ %d ]&amp;nbsp;" style="shape=parallelogram;perimeter=parallelogramPerimeter;whiteSpace=wrap;html=1;fixedSize=1;strokeWidth=2;" vertex="1" parent="1">
          <mxGeometry x="276" y="490" width="276" height="60" as="geometry" />
        </mxCell>
        <mxCell id="9j0oDae6C_7yZ8BVV_e4-13" value="" style="edgeStyle=orthogonalEdgeStyle;rounded=0;orthogonalLoop=1;jettySize=auto;html=1;" edge="1" parent="1" source="9j0oDae6C_7yZ8BVV_e4-8" target="9j0oDae6C_7yZ8BVV_e4-12">
          <mxGeometry relative="1" as="geometry" />
        </mxCell>
        <mxCell id="9j0oDae6C_7yZ8BVV_e4-8" value="รับค่าจากผู้ใช้เก็บไว้ใน array [ n ]" style="shape=parallelogram;perimeter=parallelogramPerimeter;whiteSpace=wrap;html=1;fixedSize=1;strokeWidth=2;" vertex="1" parent="1">
          <mxGeometry x="291" y="640" width="246" height="60" as="geometry" />
        </mxCell>
        <mxCell id="9j0oDae6C_7yZ8BVV_e4-16" value="" style="edgeStyle=orthogonalEdgeStyle;rounded=0;orthogonalLoop=1;jettySize=auto;html=1;" edge="1" parent="1" source="9j0oDae6C_7yZ8BVV_e4-12" target="9j0oDae6C_7yZ8BVV_e4-15">
          <mxGeometry relative="1" as="geometry" />
        </mxCell>
        <mxCell id="9j0oDae6C_7yZ8BVV_e4-27" value="" style="edgeStyle=orthogonalEdgeStyle;rounded=0;orthogonalLoop=1;jettySize=auto;html=1;" edge="1" parent="1" source="9j0oDae6C_7yZ8BVV_e4-12" target="9j0oDae6C_7yZ8BVV_e4-26">
          <mxGeometry relative="1" as="geometry" />
        </mxCell>
        <mxCell id="9j0oDae6C_7yZ8BVV_e4-12" value="array[ n ] = -1 ?" style="rhombus;whiteSpace=wrap;html=1;strokeWidth=2;" vertex="1" parent="1">
          <mxGeometry x="326" y="780" width="176" height="120" as="geometry" />
        </mxCell>
        <mxCell id="9j0oDae6C_7yZ8BVV_e4-14" value="T" style="text;html=1;align=center;verticalAlign=middle;resizable=0;points=[];autosize=1;strokeColor=none;fillColor=none;" vertex="1" parent="1">
          <mxGeometry x="365" y="398" width="30" height="30" as="geometry" />
        </mxCell>
        <mxCell id="9j0oDae6C_7yZ8BVV_e4-32" value="" style="edgeStyle=orthogonalEdgeStyle;rounded=0;orthogonalLoop=1;jettySize=auto;html=1;" edge="1" parent="1" source="9j0oDae6C_7yZ8BVV_e4-15" target="9j0oDae6C_7yZ8BVV_e4-31">
          <mxGeometry relative="1" as="geometry" />
        </mxCell>
        <mxCell id="9j0oDae6C_7yZ8BVV_e4-15" value="แสดงข้อความ Index :" style="shape=parallelogram;perimeter=parallelogramPerimeter;whiteSpace=wrap;html=1;fixedSize=1;strokeWidth=2;" vertex="1" parent="1">
          <mxGeometry x="321" y="1000" width="186" height="60" as="geometry" />
        </mxCell>
        <mxCell id="9j0oDae6C_7yZ8BVV_e4-19" value="T" style="text;html=1;align=center;verticalAlign=middle;resizable=0;points=[];autosize=1;strokeColor=none;fillColor=none;" vertex="1" parent="1">
          <mxGeometry x="365" y="908" width="30" height="30" as="geometry" />
        </mxCell>
        <mxCell id="9j0oDae6C_7yZ8BVV_e4-21" value="" style="shape=waypoint;sketch=0;fillStyle=solid;size=6;pointerEvents=1;points=[];fillColor=none;resizable=0;rotatable=0;perimeter=centerPerimeter;snapToPoint=1;" vertex="1" parent="1">
          <mxGeometry x="404" y="950" width="20" height="20" as="geometry" />
        </mxCell>
        <mxCell id="9j0oDae6C_7yZ8BVV_e4-23" value="F" style="text;html=1;align=center;verticalAlign=middle;resizable=0;points=[];autosize=1;strokeColor=none;fillColor=none;" vertex="1" parent="1">
          <mxGeometry x="465" y="328" width="30" height="30" as="geometry" />
        </mxCell>
        <mxCell id="9j0oDae6C_7yZ8BVV_e4-26" value="n++" style="whiteSpace=wrap;html=1;strokeWidth=2;" vertex="1" parent="1">
          <mxGeometry x="98" y="810" width="120" height="60" as="geometry" />
        </mxCell>
        <mxCell id="9j0oDae6C_7yZ8BVV_e4-28" value="F" style="text;html=1;align=center;verticalAlign=middle;resizable=0;points=[];autosize=1;strokeColor=none;fillColor=none;" vertex="1" parent="1">
          <mxGeometry x="275" y="798" width="30" height="30" as="geometry" />
        </mxCell>
        <mxCell id="9j0oDae6C_7yZ8BVV_e4-29" value="" style="shape=waypoint;sketch=0;fillStyle=solid;size=6;pointerEvents=1;points=[];fillColor=none;resizable=0;rotatable=0;perimeter=centerPerimeter;snapToPoint=1;" vertex="1" parent="1">
          <mxGeometry x="404" y="280" width="20" height="20" as="geometry" />
        </mxCell>
        <mxCell id="9j0oDae6C_7yZ8BVV_e4-30" style="edgeStyle=orthogonalEdgeStyle;rounded=0;orthogonalLoop=1;jettySize=auto;html=1;exitX=0;exitY=0.5;exitDx=0;exitDy=0;entryX=0.05;entryY=0.1;entryDx=0;entryDy=0;entryPerimeter=0;" edge="1" parent="1" source="9j0oDae6C_7yZ8BVV_e4-26" target="9j0oDae6C_7yZ8BVV_e4-29">
          <mxGeometry relative="1" as="geometry">
            <Array as="points">
              <mxPoint x="40" y="840" />
              <mxPoint x="40" y="290" />
            </Array>
          </mxGeometry>
        </mxCell>
        <mxCell id="9j0oDae6C_7yZ8BVV_e4-34" value="" style="edgeStyle=orthogonalEdgeStyle;rounded=0;orthogonalLoop=1;jettySize=auto;html=1;" edge="1" parent="1" source="9j0oDae6C_7yZ8BVV_e4-40" target="9j0oDae6C_7yZ8BVV_e4-33">
          <mxGeometry relative="1" as="geometry" />
        </mxCell>
        <mxCell id="9j0oDae6C_7yZ8BVV_e4-31" value="int i = 0" style="whiteSpace=wrap;html=1;strokeWidth=2;" vertex="1" parent="1">
          <mxGeometry x="354" y="1140" width="120" height="60" as="geometry" />
        </mxCell>
        <mxCell id="9j0oDae6C_7yZ8BVV_e4-36" value="" style="edgeStyle=orthogonalEdgeStyle;rounded=0;orthogonalLoop=1;jettySize=auto;html=1;" edge="1" parent="1" source="9j0oDae6C_7yZ8BVV_e4-33" target="9j0oDae6C_7yZ8BVV_e4-35">
          <mxGeometry relative="1" as="geometry" />
        </mxCell>
        <mxCell id="9j0oDae6C_7yZ8BVV_e4-45" value="" style="edgeStyle=orthogonalEdgeStyle;rounded=0;orthogonalLoop=1;jettySize=auto;html=1;" edge="1" parent="1" source="9j0oDae6C_7yZ8BVV_e4-33" target="9j0oDae6C_7yZ8BVV_e4-44">
          <mxGeometry relative="1" as="geometry" />
        </mxCell>
        <mxCell id="9j0oDae6C_7yZ8BVV_e4-33" value="i &amp;lt; n ?" style="rhombus;whiteSpace=wrap;html=1;strokeWidth=2;" vertex="1" parent="1">
          <mxGeometry x="374" y="1270" width="80" height="80" as="geometry" />
        </mxCell>
        <mxCell id="9j0oDae6C_7yZ8BVV_e4-39" value="" style="edgeStyle=orthogonalEdgeStyle;rounded=0;orthogonalLoop=1;jettySize=auto;html=1;" edge="1" parent="1" source="9j0oDae6C_7yZ8BVV_e4-35" target="9j0oDae6C_7yZ8BVV_e4-38">
          <mxGeometry relative="1" as="geometry" />
        </mxCell>
        <mxCell id="9j0oDae6C_7yZ8BVV_e4-35" value="แสดงข้อความ Index&amp;nbsp;&amp;nbsp;" style="shape=parallelogram;perimeter=parallelogramPerimeter;whiteSpace=wrap;html=1;fixedSize=1;strokeWidth=2;" vertex="1" parent="1">
          <mxGeometry x="321" y="1440" width="186" height="60" as="geometry" />
        </mxCell>
        <mxCell id="9j0oDae6C_7yZ8BVV_e4-37" value="T" style="text;html=1;align=center;verticalAlign=middle;resizable=0;points=[];autosize=1;strokeColor=none;fillColor=none;" vertex="1" parent="1">
          <mxGeometry x="365" y="1348" width="30" height="30" as="geometry" />
        </mxCell>
        <mxCell id="9j0oDae6C_7yZ8BVV_e4-38" value="i ++" style="whiteSpace=wrap;html=1;strokeWidth=2;" vertex="1" parent="1">
          <mxGeometry x="354" y="1580" width="120" height="60" as="geometry" />
        </mxCell>
        <mxCell id="9j0oDae6C_7yZ8BVV_e4-41" value="" style="edgeStyle=orthogonalEdgeStyle;rounded=0;orthogonalLoop=1;jettySize=auto;html=1;" edge="1" parent="1" source="9j0oDae6C_7yZ8BVV_e4-31" target="9j0oDae6C_7yZ8BVV_e4-40">
          <mxGeometry relative="1" as="geometry">
            <mxPoint x="414" y="1200" as="sourcePoint" />
            <mxPoint x="414" y="1270" as="targetPoint" />
          </mxGeometry>
        </mxCell>
        <mxCell id="9j0oDae6C_7yZ8BVV_e4-40" value="" style="shape=waypoint;sketch=0;fillStyle=solid;size=6;pointerEvents=1;points=[];fillColor=none;resizable=0;rotatable=0;perimeter=centerPerimeter;snapToPoint=1;" vertex="1" parent="1">
          <mxGeometry x="404" y="1210" width="20" height="20" as="geometry" />
        </mxCell>
        <mxCell id="9j0oDae6C_7yZ8BVV_e4-42" style="edgeStyle=orthogonalEdgeStyle;rounded=0;orthogonalLoop=1;jettySize=auto;html=1;exitX=1;exitY=0.5;exitDx=0;exitDy=0;entryX=0.7;entryY=0.35;entryDx=0;entryDy=0;entryPerimeter=0;" edge="1" parent="1" source="9j0oDae6C_7yZ8BVV_e4-38" target="9j0oDae6C_7yZ8BVV_e4-40">
          <mxGeometry relative="1" as="geometry">
            <Array as="points">
              <mxPoint x="590" y="1610" />
              <mxPoint x="590" y="1220" />
            </Array>
          </mxGeometry>
        </mxCell>
        <mxCell id="9j0oDae6C_7yZ8BVV_e4-47" value="" style="edgeStyle=orthogonalEdgeStyle;rounded=0;orthogonalLoop=1;jettySize=auto;html=1;" edge="1" parent="1" source="9j0oDae6C_7yZ8BVV_e4-44" target="9j0oDae6C_7yZ8BVV_e4-46">
          <mxGeometry relative="1" as="geometry" />
        </mxCell>
        <mxCell id="9j0oDae6C_7yZ8BVV_e4-44" value="เว้นบรรทัด" style="shape=parallelogram;perimeter=parallelogramPerimeter;whiteSpace=wrap;html=1;fixedSize=1;strokeWidth=2;" vertex="1" parent="1">
          <mxGeometry x="100" y="1280" width="120" height="60" as="geometry" />
        </mxCell>
        <mxCell id="9j0oDae6C_7yZ8BVV_e4-49" value="" style="edgeStyle=orthogonalEdgeStyle;rounded=0;orthogonalLoop=1;jettySize=auto;html=1;" edge="1" parent="1" source="9j0oDae6C_7yZ8BVV_e4-46" target="9j0oDae6C_7yZ8BVV_e4-48">
          <mxGeometry relative="1" as="geometry" />
        </mxCell>
        <mxCell id="9j0oDae6C_7yZ8BVV_e4-46" value="แสดงข้อความ Array :" style="shape=parallelogram;perimeter=parallelogramPerimeter;whiteSpace=wrap;html=1;fixedSize=1;strokeWidth=2;" vertex="1" parent="1">
          <mxGeometry x="75" y="1420" width="170" height="60" as="geometry" />
        </mxCell>
        <mxCell id="9j0oDae6C_7yZ8BVV_e4-51" value="" style="edgeStyle=orthogonalEdgeStyle;rounded=0;orthogonalLoop=1;jettySize=auto;html=1;entryX=0.5;entryY=0;entryDx=0;entryDy=0;" edge="1" parent="1" source="9j0oDae6C_7yZ8BVV_e4-48" target="9j0oDae6C_7yZ8BVV_e4-50">
          <mxGeometry relative="1" as="geometry">
            <Array as="points">
              <mxPoint x="160" y="1690" />
              <mxPoint x="414" y="1690" />
            </Array>
          </mxGeometry>
        </mxCell>
        <mxCell id="9j0oDae6C_7yZ8BVV_e4-48" value="int i = 0" style="whiteSpace=wrap;html=1;strokeWidth=2;" vertex="1" parent="1">
          <mxGeometry x="100" y="1560" width="120" height="60" as="geometry" />
        </mxCell>
        <mxCell id="9j0oDae6C_7yZ8BVV_e4-53" value="" style="edgeStyle=orthogonalEdgeStyle;rounded=0;orthogonalLoop=1;jettySize=auto;html=1;" edge="1" parent="1" source="9j0oDae6C_7yZ8BVV_e4-50" target="9j0oDae6C_7yZ8BVV_e4-52">
          <mxGeometry relative="1" as="geometry" />
        </mxCell>
        <mxCell id="9j0oDae6C_7yZ8BVV_e4-60" value="" style="edgeStyle=orthogonalEdgeStyle;rounded=0;orthogonalLoop=1;jettySize=auto;html=1;" edge="1" parent="1" source="9j0oDae6C_7yZ8BVV_e4-50" target="9j0oDae6C_7yZ8BVV_e4-59">
          <mxGeometry relative="1" as="geometry" />
        </mxCell>
        <mxCell id="9j0oDae6C_7yZ8BVV_e4-50" value="i &amp;lt; n ?" style="rhombus;whiteSpace=wrap;html=1;strokeWidth=2;" vertex="1" parent="1">
          <mxGeometry x="374" y="1800" width="80" height="80" as="geometry" />
        </mxCell>
        <mxCell id="9j0oDae6C_7yZ8BVV_e4-56" value="" style="edgeStyle=orthogonalEdgeStyle;rounded=0;orthogonalLoop=1;jettySize=auto;html=1;" edge="1" parent="1" source="9j0oDae6C_7yZ8BVV_e4-52" target="9j0oDae6C_7yZ8BVV_e4-55">
          <mxGeometry relative="1" as="geometry" />
        </mxCell>
        <mxCell id="9j0oDae6C_7yZ8BVV_e4-52" value="แสดงตัวเลขที่เก็บไว้ใน array&amp;nbsp;" style="shape=parallelogram;perimeter=parallelogramPerimeter;whiteSpace=wrap;html=1;fixedSize=1;strokeWidth=2;" vertex="1" parent="1">
          <mxGeometry x="326" y="1970" width="176" height="60" as="geometry" />
        </mxCell>
        <mxCell id="9j0oDae6C_7yZ8BVV_e4-54" value="T" style="text;html=1;align=center;verticalAlign=middle;resizable=0;points=[];autosize=1;strokeColor=none;fillColor=none;" vertex="1" parent="1">
          <mxGeometry x="365" y="1878" width="30" height="30" as="geometry" />
        </mxCell>
        <mxCell id="9j0oDae6C_7yZ8BVV_e4-55" value="i++" style="whiteSpace=wrap;html=1;strokeWidth=2;" vertex="1" parent="1">
          <mxGeometry x="354" y="2110" width="120" height="60" as="geometry" />
        </mxCell>
        <mxCell id="9j0oDae6C_7yZ8BVV_e4-57" value="" style="shape=waypoint;sketch=0;fillStyle=solid;size=6;pointerEvents=1;points=[];fillColor=none;resizable=0;rotatable=0;perimeter=centerPerimeter;snapToPoint=1;" vertex="1" parent="1">
          <mxGeometry x="404" y="1720" width="20" height="20" as="geometry" />
        </mxCell>
        <mxCell id="9j0oDae6C_7yZ8BVV_e4-58" style="edgeStyle=orthogonalEdgeStyle;rounded=0;orthogonalLoop=1;jettySize=auto;html=1;exitX=0.5;exitY=1;exitDx=0;exitDy=0;entryX=0.95;entryY=0.8;entryDx=0;entryDy=0;entryPerimeter=0;" edge="1" parent="1" source="9j0oDae6C_7yZ8BVV_e4-55" target="9j0oDae6C_7yZ8BVV_e4-57">
          <mxGeometry relative="1" as="geometry">
            <Array as="points">
              <mxPoint x="414" y="2190" />
              <mxPoint x="610" y="2190" />
              <mxPoint x="610" y="1730" />
            </Array>
          </mxGeometry>
        </mxCell>
        <mxCell id="9j0oDae6C_7yZ8BVV_e4-59" value="เว้นบรรทัด" style="shape=parallelogram;perimeter=parallelogramPerimeter;whiteSpace=wrap;html=1;fixedSize=1;strokeWidth=2;" vertex="1" parent="1">
          <mxGeometry x="194" y="1810" width="120" height="60" as="geometry" />
        </mxCell>
        <mxCell id="9j0oDae6C_7yZ8BVV_e4-61" value="end" style="strokeWidth=2;html=1;shape=mxgraph.flowchart.start_1;whiteSpace=wrap;" vertex="1" parent="1">
          <mxGeometry x="364" y="2410" width="100" height="60" as="geometry" />
        </mxCell>
        <mxCell id="9j0oDae6C_7yZ8BVV_e4-62" style="edgeStyle=orthogonalEdgeStyle;rounded=0;orthogonalLoop=1;jettySize=auto;html=1;exitX=0.5;exitY=1;exitDx=0;exitDy=0;entryX=0.5;entryY=0;entryDx=0;entryDy=0;entryPerimeter=0;" edge="1" parent="1" source="9j0oDae6C_7yZ8BVV_e4-59" target="9j0oDae6C_7yZ8BVV_e4-61">
          <mxGeometry relative="1" as="geometry">
            <Array as="points">
              <mxPoint x="254" y="2340" />
              <mxPoint x="414" y="2340" />
            </Array>
          </mxGeometry>
        </mxCell>
        <mxCell id="9j0oDae6C_7yZ8BVV_e4-63" value="F" style="text;html=1;align=center;verticalAlign=middle;resizable=0;points=[];autosize=1;strokeColor=none;fillColor=none;" vertex="1" parent="1">
          <mxGeometry x="335" y="1788" width="30" height="30" as="geometry" />
        </mxCell>
      </root>
    </mxGraphModel>
  </diagram>
</mxfile>
